<svg xmlns="http://www.w3.org/2000/svg" height="40px" viewBox="0 -960 960 960" width="40px" fill="#FF007F"><path d="M349.33-317.33 520-360.67q29.58-6.6 50.82-27.85 21.24-21.24 27.85-50.81L642-610q4-14.33-6.83-25.17Q624.33-646 610-642l-170.67 43.33q-29.57 6.61-50.81 27.85-21.25 21.24-27.85 50.82l-43.34 170.67q-4 14.33 6.84 25.16 10.83 10.84 25.16 6.84ZM479.76-450q-12.09 0-20.93-9.07-8.83-9.07-8.83-21.17 0-12.09 9.07-20.93 9.07-8.83 21.17-8.83 12.09 0 20.93 9.07 8.83 9.07 8.83 21.17 0 12.09-9.07 20.93-9.07 8.83-21.17 8.83Zm.33 398Q391-52 313.01-85.42q-77.98-33.41-136.08-91.51-58.1-58.1-91.51-135.99Q52-390.82 52-479.91q0-89.76 33.42-167.74 33.41-77.99 91.4-135.79 58-57.8 135.94-91.51 77.94-33.72 167.09-33.72 89.82 0 167.88 33.67 78.07 33.66 135.82 91.37 57.74 57.71 91.43 135.72 33.69 78.02 33.69 167.91 0 89.18-33.72 167.16-33.71 77.98-91.51 135.99-57.8 58.02-135.69 91.43Q569.85-52 480.09-52Z"/></svg>